<mxGraphModel background="#FFFFFF" grid="1" guides="1" style="default-style2"><root><mxCell id="0"/><mxCell id="2" parent="0" value="Layer 0"/><mxCell id="3" parent="2" style="shape=ellipse;perimeter=ellipsePerimeter;shadow=0;strokeWidth=0;strokeColor=none;fillColor=#1c4587;opacity=100.0;html=1;nl2Br=0;verticalAlign=middle;align=center;spacingLeft=7.6;spacingRight=6;whiteSpace=wrap;gliffyId=792;" value="&lt;div style='width: 73.8px;height:auto;word-break: break-word;'&gt;&lt;div align=&quot;center&quot;&gt;&lt;/div&gt;&lt;div align=&quot;center&quot;&gt;&lt;span style=&quot;font-weight: bold; font-size: 16px; color: #ffffff; line-height: 18.5px;&quot;&gt;A&lt;/span&gt;&lt;/div&gt;&lt;div align=&quot;center&quot;&gt;&lt;span style=&quot;font-weight: bold; font-size: 16px; color: #ffffff; line-height: 18.5px;&quot;&gt;(F1,F2)&lt;/span&gt;&lt;/div&gt;&lt;/div&gt;" vertex="1"><mxGeometry as="geometry" height="50.0" width="80.0" x="209.5" y="160.0"/></mxCell><mxCell id="4" parent="2" style="shape=rect;rounded=1;arcSize=15;absoluteArcSize=1;shadow=0;strokeWidth=1;fillColor=#ffe599;strokeColor=#000000;opacity=100.0;html=1;nl2Br=0;verticalAlign=middle;align=center;spacingLeft=7.3333335;spacingRight=6;whiteSpace=wrap;gliffyId=1204;" value="&lt;div style='width: 74.333336px;height:auto;word-break: break-word;'&gt;&lt;div align=&quot;center&quot;&gt;&lt;span style=&quot;font-size: 12px; font-family: Arial; line-height: 14px;&quot;&gt; A_sat&lt;/span&gt;&lt;/div&gt;&lt;/div&gt;" vertex="1"><mxGeometry as="geometry" height="30.0" width="80.0" x="209.5" y="90.0"/></mxCell><mxCell edge="1" id="5" parent="2" source="3" style="shape=filledEdge;strokeWidth=2;strokeColor=#000000;fillColor=none;startArrow=none;startFill=0;startSize=6;endArrow=none;endFill=0;endSize=6;rounded=1;gliffyId=1258;exitX=0.5;exitY=0.0;exitPerimeter=0;entryX=0.5;entryY=1.0;entryPerimeter=0;edgeStyle=orthogonalEdgeStyle;" target="4"><mxGeometry as="geometry" height="100.0" relative="1" width="100.0"><Array as="points"><mxPoint x="249.5" y="160.0"/><mxPoint x="249.5" y="146.6666259765625"/><mxPoint x="249.5" y="133.3333740234375"/><mxPoint x="249.5" y="120.0"/></Array></mxGeometry></mxCell><mxCell id="6" parent="2" style="shape=rect;shadow=0;strokeWidth=2;fillColor=#FFFFFF;strokeColor=#333333;opacity=100.0;html=1;nl2Br=0;verticalAlign=middle;align=center;spacingLeft=1.4069678;spacingRight=0;whiteSpace=wrap;gliffyId=1460;" value="&lt;div style='width: 64.534454px;height:auto;word-break: break-word;'&gt;&lt;div align=&quot;center&quot;&gt;&lt;span style=&quot;font-family: Arial; font-size: 12px; text-decoration: none; line-height: 0;&quot;&gt;&lt;span style=&quot;text-decoration: none; line-height: 14px;&quot;&gt;IDA_F1&lt;/span&gt;&lt;/span&gt;&lt;/div&gt;&lt;/div&gt;" vertex="1"><mxGeometry as="geometry" height="30.0" width="70.348388671875" x="209.5" y="10.0"/></mxCell><mxCell id="7" parent="2" style="shape=rect;shadow=0;strokeWidth=2;fillColor=#FFFFFF;strokeColor=#333333;opacity=100.0;html=1;nl2Br=0;verticalAlign=middle;align=center;spacingLeft=2.32;spacingRight=0;whiteSpace=wrap;gliffyId=1463;" value="&lt;div style='width: 108.36px;height:auto;word-break: break-word;'&gt;&lt;div align=&quot;center&quot;&gt;&lt;span style=&quot;font-family: Arial; font-size: 12px; text-decoration: none; color: #38761d; line-height: 0;&quot;&gt;&lt;span style=&quot;text-decoration: none; line-height: 14px;&quot;&gt;CONTENT_A_S1&lt;/span&gt;&lt;/span&gt;&lt;/div&gt;&lt;/div&gt;" vertex="1"><mxGeometry as="geometry" height="30.0" width="116.0" x="93.5" y="10.0"/></mxCell><mxCell id="8" parent="2" style="shape=rect;shadow=0;strokeWidth=2;fillColor=#FFFFFF;strokeColor=#333333;opacity=100.0;html=1;nl2Br=0;verticalAlign=middle;align=center;spacingLeft=1.8;spacingRight=0;whiteSpace=wrap;gliffyId=1517;" value="&lt;div style='width: 83.4px;height:auto;word-break: break-word;'&gt;&lt;div align=&quot;center&quot;&gt;&lt;span style=&quot;font-family: Arial; font-size: 12px; text-decoration: none; line-height: 14px;&quot;&gt; CONTENT_A&lt;/span&gt;&lt;/div&gt;&lt;/div&gt;" vertex="1"><mxGeometry as="geometry" height="30.0" width="90.0" x="278.25" y="10.0"/></mxCell><mxCell id="9" parent="2" style="shape=rect;shadow=0;strokeWidth=2;fillColor=#FFFFFF;strokeColor=#333333;opacity=100.0;html=1;nl2Br=0;verticalAlign=middle;align=center;spacingLeft=2.2;spacingRight=0;whiteSpace=wrap;gliffyId=1507;" value="&lt;div style='width: 102.6px;height:auto;word-break: break-word;'&gt;&lt;div align=&quot;center&quot;&gt;&lt;span style=&quot;font-family: Arial; font-size: 12px; color: rgb(204, 0, 0); text-decoration: none; line-height: 14px;&quot;&gt; CONTENT_A_S2&lt;/span&gt;&lt;/div&gt;&lt;/div&gt;" vertex="1"><mxGeometry as="geometry" height="30.0" width="110.0" x="438.0994567871094" y="10.0"/></mxCell><mxCell id="10" parent="2" style="shape=rect;shadow=0;strokeWidth=2;fillColor=#FFFFFF;strokeColor=#333333;opacity=100.0;html=1;nl2Br=0;verticalAlign=middle;align=center;spacingLeft=1.4069678;spacingRight=0;whiteSpace=wrap;gliffyId=1467;" value="&lt;div style='width: 64.534454px;height:auto;word-break: break-word;'&gt;&lt;div align=&quot;center&quot;&gt;&lt;span style=&quot;font-family: Arial; font-size: 12px; text-decoration: none; color: #38761d; line-height: 0;&quot;&gt;&lt;span style=&quot;text-decoration: none; line-height: 14px;&quot;&gt;IDA_F2_S1&lt;/span&gt;&lt;/span&gt;&lt;/div&gt;&lt;/div&gt;" vertex="1"><mxGeometry as="geometry" height="30.0" width="70.348388671875" x="23.151613235473633" y="10.0"/></mxCell><mxCell id="11" parent="2" style="shape=rect;shadow=0;strokeWidth=2;fillColor=#FFFFFF;strokeColor=#333333;opacity=100.0;html=1;nl2Br=0;verticalAlign=middle;align=center;spacingLeft=1.3969892;spacingRight=0;whiteSpace=wrap;gliffyId=1488;" value="&lt;div style='width: 64.05548px;height:auto;word-break: break-word;'&gt;&lt;div align=&quot;center&quot;&gt;&lt;span style=&quot;font-family: Arial; font-size: 12px; text-decoration: none; color: #cc0000; line-height: 0;&quot;&gt;&lt;span style=&quot;text-decoration: none; line-height: 14px;&quot;&gt;IDA_F2_S2&lt;/span&gt;&lt;/span&gt;&lt;/div&gt;&lt;/div&gt;" vertex="1"><mxGeometry as="geometry" height="30.0" width="69.8494644165039" x="368.25" y="10.0"/></mxCell><mxCell edge="1" id="12" parent="2" source="6" style="shape=filledEdge;strokeWidth=2;strokeColor=#38761d;fillColor=none;startArrow=none;startFill=0;startSize=6;endArrow=block;endFill=1;endSize=6;rounded=1;gliffyId=1514;edgeStyle=orthogonalEdgeStyle;" target="3"><mxGeometry as="geometry" height="132.0" relative="1" width="17.0"><Array as="points"><mxPoint x="230.1045684814453" y="40.0"/><mxPoint x="230.1045684814453" y="50.0"/><mxPoint x="120.0" y="50.0"/><mxPoint x="120.0" y="185.0"/><mxPoint x="209.5" y="185.0"/></Array></mxGeometry></mxCell><mxCell edge="1" id="13" parent="2" source="11" style="shape=filledEdge;strokeWidth=2;strokeColor=#cc0000;fillColor=none;startArrow=none;startFill=0;startSize=6;endArrow=block;endFill=1;endSize=6;rounded=1;gliffyId=1499;edgeStyle=orthogonalEdgeStyle;" target="3"><mxGeometry as="geometry" height="39.0" relative="1" width="46.0"><Array as="points"><mxPoint x="403.17474365234375" y="40.0"/><mxPoint x="403.17474365234375" y="185.0"/><mxPoint x="289.5" y="185.0"/></Array></mxGeometry></mxCell><mxCell edge="1" id="14" parent="2" source="7" style="shape=filledEdge;strokeWidth=2;strokeColor=#38761d;fillColor=none;startArrow=none;startFill=0;startSize=6;endArrow=block;endFill=1;endSize=6;rounded=1;gliffyId=1480;exitX=0.5;exitY=1.0;exitPerimeter=0;entryX=0.0;entryY=0.5;entryPerimeter=0;edgeStyle=orthogonalEdgeStyle;" target="4"><mxGeometry as="geometry" height="39.0" relative="1" width="46.0"><Array as="points"><mxPoint x="151.5" y="40.0"/><mxPoint x="151.5" y="105.0"/><mxPoint x="209.5" y="105.0"/></Array></mxGeometry></mxCell><mxCell edge="1" id="15" parent="2" source="8" style="shape=filledEdge;strokeWidth=2;strokeColor=#38761d;fillColor=none;startArrow=none;startFill=0;startSize=6;endArrow=block;endFill=1;endSize=6;rounded=1;gliffyId=1532;exitX=0.2928932309150696;exitY=1.0;exitPerimeter=0;entryX=0.0;entryY=0.5;entryPerimeter=0;edgeStyle=orthogonalEdgeStyle;" target="4"><mxGeometry as="geometry" height="39.0" relative="1" width="46.0"><Array as="points"><mxPoint x="304.6103820800781" y="40.0"/><mxPoint x="304.6103820800781" y="72.5"/><mxPoint x="169.5" y="72.5"/><mxPoint x="169.5" y="105.0"/><mxPoint x="209.5" y="105.0"/></Array></mxGeometry></mxCell><mxCell edge="1" id="16" parent="2" source="9" style="shape=filledEdge;strokeWidth=2;strokeColor=#cc0000;fillColor=none;startArrow=none;startFill=0;startSize=6;endArrow=block;endFill=1;endSize=6;rounded=1;gliffyId=1512;exitX=0.2928932309150696;exitY=1.0;exitPerimeter=0;entryX=1.0;entryY=0.5;entryPerimeter=0;edgeStyle=orthogonalEdgeStyle;" target="4"><mxGeometry as="geometry" height="39.0" relative="1" width="46.0"><Array as="points"><mxPoint x="470.3177185058594" y="40.0"/><mxPoint x="470.3177185058594" y="105.0"/><mxPoint x="289.5" y="105.0"/></Array></mxGeometry></mxCell><mxCell edge="1" id="17" parent="2" source="8" style="shape=filledEdge;strokeWidth=2;strokeColor=#cc0000;fillColor=none;startArrow=none;startFill=0;startSize=6;endArrow=block;endFill=1;endSize=6;rounded=1;gliffyId=1533;exitX=0.7071067690849304;exitY=1.0;exitPerimeter=0;entryX=1.0;entryY=0.5;entryPerimeter=0;edgeStyle=orthogonalEdgeStyle;" target="4"><mxGeometry as="geometry" height="39.0" relative="1" width="46.0"><Array as="points"><mxPoint x="341.8896179199219" y="40.0"/><mxPoint x="341.8896179199219" y="105.0"/><mxPoint x="289.5" y="105.0"/></Array></mxGeometry></mxCell><mxCell edge="1" id="18" parent="2" source="6" style="shape=filledEdge;strokeWidth=2;strokeColor=#cc0000;fillColor=none;startArrow=none;startFill=0;startSize=6;endArrow=block;endFill=1;endSize=6;rounded=1;gliffyId=1474;edgeStyle=orthogonalEdgeStyle;" target="3"><mxGeometry as="geometry" height="132.0" relative="1" width="17.0"><Array as="points"><mxPoint x="259.24383544921875" y="40.0"/><mxPoint x="259.24383544921875" y="50.0"/><mxPoint x="370.0" y="50.0"/><mxPoint x="370.0" y="185.0"/><mxPoint x="289.5" y="185.0"/></Array></mxGeometry></mxCell><mxCell edge="1" id="19" parent="2" source="10" style="shape=filledEdge;strokeWidth=2;strokeColor=#38761d;fillColor=none;startArrow=none;startFill=0;startSize=6;endArrow=block;endFill=1;endSize=6;rounded=1;gliffyId=1476;edgeStyle=orthogonalEdgeStyle;" target="3"><mxGeometry as="geometry" height="39.0" relative="1" width="46.0"><Array as="points"><mxPoint x="43.75616455078125" y="40.0"/><mxPoint x="43.75616455078125" y="185.0"/><mxPoint x="209.5" y="185.0"/></Array></mxGeometry></mxCell></root></mxGraphModel>